<svg xmlns="http://www.w3.org/2000/svg" xmlns:svg="http://www.w3.org/2000/svg" xmlns:xlink="http://www.w3.org/1999/xlink" id="svg2" width="50" height="100" version="1.1"><script id="script4030"/><metadata id="metadata7"/><g id="layer1" transform="translate(0,-952.3622)"><path style="fill-opacity:.39215687;fill-rule:nonzero;stroke:none;fill:#231f20" id="button-face-black" d="M 0,100 C 27.614237,100 50,77.614237 50,50 50,22.385763 27.614237,0 0,0 m 31.40625,26.46875 c 1.798441,-0.05498 3.575354,1.081811 4.279268,2.737685 0.703914,1.655873 0.289499,3.724199 -0.998018,4.981065 L 18.875,50 34.6875,65.8125 c 1.668971,1.668971 1.66897,4.706028 -10e-7,6.374999 -1.668971,1.668971 -4.706028,1.668972 -6.374999,10e-7 l -19,-19 c -1.6724471,-1.666985 -1.6724471,-4.708015 0,-6.375 l 19,-19 c 0.807975,-0.821785 1.941673,-1.314199 3.09375,-1.34375 z" transform="translate(0,952.3622)"/></g></svg>