<svg xmlns="http://www.w3.org/2000/svg" xmlns:svg="http://www.w3.org/2000/svg" xmlns:xlink="http://www.w3.org/1999/xlink" id="svg2" width="500" height="500" version="1.1"><defs id="defs4"><linearGradient id="linearGradient3860"><stop style="stop-color:#10ff01;stop-opacity:1" id="stop3862" offset="0"/><stop style="stop-color:#0aa100;stop-opacity:1" id="stop3864" offset="1"/></linearGradient><linearGradient id="linearGradient3818"><stop style="stop-color:#3b6c0c;stop-opacity:1" id="stop3820" offset="0"/><stop style="stop-color:#99e03d;stop-opacity:1" id="stop3822" offset="1"/></linearGradient><marker id="Arrow1Mstart" orient="auto" refX="0" refY="0" style="overflow:visible"><path id="path5409" d="M 0.0,0.0 L 5.0,-5.0 L -12.5,0.0 L 5.0,5.0 L 0.0,0.0 z" transform="scale(0.4) translate(10,0)" style="fill-rule:evenodd;stroke:#000;stroke-width:1pt"/></marker><linearGradient id="linearGradient5261"><stop style="stop-color:#1fff1f;stop-opacity:1" id="stop5263" offset="0"/><stop style="stop-color:#5bf033;stop-opacity:1" id="stop5265" offset="1"/></linearGradient><linearGradient id="linearGradient3801"><stop id="stop3803" offset="0" style="stop-color:#fff;stop-opacity:1"/><stop id="stop3805" offset="1" style="stop-color:#ddd;stop-opacity:1"/></linearGradient><linearGradient id="linearGradient3783"><stop style="stop-color:#000;stop-opacity:1" id="stop3785" offset="0"/><stop style="stop-color:#1d1d1d;stop-opacity:1" id="stop3787" offset="1"/></linearGradient><filter id="filter5337" width="1.389" height="1.383" x="-.195" y="-.192"><feGaussianBlur id="feGaussianBlur5339" stdDeviation="28.783"/></filter><linearGradient id="linearGradient3012" x1="327.686" x2="165.422" y1="466.038" y2="27.303" gradientTransform="matrix(0.9781476,-0.20791169,0.20791169,0.9781476,-49.281147,610.3912)" gradientUnits="userSpaceOnUse" xlink:href="#linearGradient3783"/><linearGradient id="linearGradient3018" x1="162.261" x2="430.188" y1="115.094" y2="430.188" gradientTransform="translate(-2.828125,552.36218)" gradientUnits="userSpaceOnUse" xlink:href="#linearGradient5261"/><linearGradient id="linearGradient3037" x1="161.321" x2="221.537" y1="154.717" y2="298.836" gradientTransform="matrix(0.93077119,-0.19784152,0.19674861,0.92562944,-33.813962,622.11069)" gradientUnits="userSpaceOnUse" xlink:href="#linearGradient3801"/><linearGradient id="linearGradient3824" x1="260.88" x2="249.475" y1="128.278" y2="354.264" gradientTransform="translate(-172.28358,586.80656)" gradientUnits="userSpaceOnUse" xlink:href="#linearGradient3818"/><linearGradient id="linearGradient3866" x1="265" x2="264.406" y1="853.206" y2="693.275" gradientUnits="userSpaceOnUse" xlink:href="#linearGradient3860"/><filter id="filter3876"><feGaussianBlur id="feGaussianBlur3878" stdDeviation="1.292"/></filter><filter id="filter3880"><feGaussianBlur id="feGaussianBlur3882" stdDeviation="1.292"/></filter></defs><metadata id="metadata7"/><g id="layer1" transform="translate(0,-552.36218)"><rect style="fill:url(#linearGradient3018);fill-opacity:1;stroke:none;filter:url(#filter5337)" id="rect5259" width="354.719" height="360.375" x="72.641" y="622.175" transform="matrix(1.0124604,-0.21520509,0.21520509,1.0124604,-175.78752,43.803552)"/><rect style="opacity:.91588781;fill:#fff;fill-opacity:1;fill-rule:nonzero;stroke:none" id="rect3814" width="315.094" height="316.031" x="-79.83" y="677.369" transform="matrix(0.9781476,-0.20791169,0.20791169,0.9781476,0,0)"/><rect style="opacity:.91588781;fill:url(#linearGradient3824);fill-opacity:1;fill-rule:nonzero;stroke:none" id="rect3816" width="303.125" height="304.031" x="-73.846" y="683.369" transform="matrix(0.9781476,-0.20791169,0.20791169,0.9781476,0,0)"/><path style="fill:none;stroke:#000;stroke-width:0;stroke-miterlimit:4;stroke-opacity:1;stroke-dasharray:none" id="path3870" d="m 269.41011,678.14336 c 32.13669,-6.83086 64.11031,13.93304 70.94117,46.06974 l 14.28094,67.18651 12.67243,-22.5973 26.15814,14.69504 -32.16152,57.3142 -8.18479,14.55094 -13.59464,-9.69794 -53.05532,-37.82704 17.4248,-24.4381 21.64986,15.42967 -14.53432,-68.37863 c -3.45996,-16.27782 -19.08161,-26.42261 -35.3594,-22.96266 -16.27777,3.45995 -26.4226,19.08161 -22.96265,35.35939 l 22.55841,106.12902 c 6.83087,32.13668 -13.93303,64.1103 -46.06973,70.94117 -32.13669,6.83086 -64.11031,-13.93304 -70.94117,-46.06974 l -14.28094,-67.18651 -12.67243,22.5973 -26.15814,-14.69504 32.16152,-57.31421 8.1783,-14.5815 13.60113,9.72851 53.05532,37.82704 -17.4313,24.40753 -21.64986,-15.42967 14.54082,68.4092 c 3.45995,16.27778 19.08161,26.42261 35.3594,22.96266 16.27779,-3.45995 26.42261,-19.08161 22.96266,-35.35939 L 223.34038,749.08453 c -6.83087,-32.13668 13.93304,-64.1103 46.06973,-70.94117 z"/><path style="opacity:.5;fill:none;stroke:url(#linearGradient3866);stroke-width:5;stroke-miterlimit:4;stroke-opacity:1;stroke-dasharray:none;filter:url(#filter3880)" id="path3830" d="m 294.8125,680.89343 c 32.85464,0 59.8125,26.95785 59.8125,59.8125 l 0,68.6875 17.09375,-19.46875 22.53125,19.8125 -43.375,49.375 -11.03125,12.53125 -11.28125,-12.3125 -44.03125,-48.03125 22.125,-20.28125 17.96875,19.59375 0,-69.90625 c 0,-16.64147 -13.17106,-29.8125 -29.8125,-29.8125 -16.64143,0 -29.8125,13.17106 -29.8125,29.8125 l 0,108.5 c 0,32.85464 -26.95785,59.8125 -59.8125,59.8125 -32.85464,0 -59.8125,-26.95785 -59.8125,-59.8125 l 0,-68.6875 -17.09375,19.46875 -22.53125,-19.8125 43.375,-49.375 11.03125,-12.5625 11.28125,12.34375 44.03125,48.03125 -22.125,20.25 -17.96875,-19.59375 0,69.9375 c 0,16.64143 13.17106,29.8125 29.8125,29.8125 16.64145,0 29.8125,-13.17106 29.8125,-29.8125 l 0,-108.5 c 0,-32.85464 26.95785,-59.8125 59.8125,-59.8125 z" transform="matrix(0.9781476,-0.20791169,0.20791169,0.9781476,-161.35738,69.511461)"/><path id="path3868" d="m 294.8125,688.89343 c 32.85464,0 59.8125,26.95785 59.8125,59.8125 l 0,68.6875 17.09375,-19.46875 22.53125,19.8125 -43.375,49.375 -11.03125,12.53125 -11.28125,-12.3125 -44.03125,-48.03125 22.125,-20.28125 17.96875,19.59375 0,-69.90625 c 0,-16.64147 -13.17106,-29.8125 -29.8125,-29.8125 -16.64143,0 -29.8125,13.17106 -29.8125,29.8125 l 0,108.5 c 0,32.85464 -26.95785,59.8125 -59.8125,59.8125 -32.85464,0 -59.8125,-26.95785 -59.8125,-59.8125 l 0,-68.6875 -17.09375,19.46875 -22.53125,-19.8125 43.375,-49.375 11.03125,-12.5625 11.28125,12.34375 44.03125,48.03125 -22.125,20.25 -17.96875,-19.59375 0,69.9375 c 0,16.64143 13.17106,29.8125 29.8125,29.8125 16.64145,0 29.8125,-13.17106 29.8125,-29.8125 l 0,-108.5 c 0,-32.85464 26.95785,-59.8125 59.8125,-59.8125 z" transform="matrix(0.9781476,-0.20791169,0.20791169,0.9781476,-161.35738,69.511461)" style="opacity:.9;fill:none;stroke:#041b00;stroke-width:5;stroke-miterlimit:4;stroke-opacity:1;stroke-dasharray:none;filter:url(#filter3876)"/><path style="fill:url(#linearGradient3037);fill-opacity:1;fill-rule:nonzero;stroke:none" id="rect3791" d="M 69.848054,683.78927 133.0597,981.17671 429.5607,918.15348 366.34905,620.76604 z m 199.562056,-5.64591 c 32.13669,-6.83086 64.11031,13.93304 70.94117,46.06974 l 14.28094,67.18651 12.67243,-22.5973 26.15814,14.69504 -32.16152,57.3142 -8.18479,14.55094 -13.59464,-9.69794 -53.05532,-37.82704 17.4248,-24.4381 21.64986,15.42967 -14.53432,-68.37863 c -3.45996,-16.27782 -19.08161,-26.42261 -35.3594,-22.96266 -16.27777,3.45995 -26.4226,19.08161 -22.96265,35.35939 l 22.55841,106.12902 c 6.83087,32.13668 -13.93303,64.1103 -46.06973,70.94117 -32.13669,6.83086 -64.11031,-13.93304 -70.94117,-46.06974 l -14.28094,-67.18651 -12.67243,22.5973 -26.15814,-14.69504 32.16152,-57.31421 8.1783,-14.5815 13.60113,9.72851 53.05532,37.82704 -17.4313,24.40753 -21.64986,-15.42967 14.54082,68.4092 c 3.45995,16.27778 19.08161,26.42261 35.3594,22.96266 16.27779,-3.45995 26.42261,-19.08161 22.96266,-35.35939 L 223.34038,749.08453 c -6.83087,-32.13668 13.93304,-64.1103 46.06973,-70.94117 z"/><path style="opacity:.91588781;fill:url(#linearGradient3012);fill-opacity:1;fill-rule:nonzero;stroke:#000;stroke-width:5;stroke-linecap:round;stroke-linejoin:miter;stroke-miterlimit:4;stroke-opacity:1;stroke-dasharray:none;stroke-dashoffset:0" id="rect3010" d="M 39.053265,662.9873 113.97944,1015.4872 460.94673,941.73706 386.02055,589.23712 39.053265,662.9873 z m 23.693716,16.17731 308.208189,-65.51167 65.70659,309.1252 -308.20819,65.51168 -65.706589,-309.12521 z"/><path id="path3828" d="m 269.41011,678.14336 c 32.13669,-6.83086 64.11031,13.93304 70.94117,46.06974 l 14.28094,67.18651 12.67243,-22.5973 26.15814,14.69504 -32.16152,57.3142 -8.18479,14.55094 -13.59464,-9.69794 -53.05532,-37.82704 17.4248,-24.4381 21.64986,15.42967 -14.53432,-68.37863 c -3.45996,-16.27782 -19.08161,-26.42261 -35.3594,-22.96266 -16.27777,3.45995 -26.4226,19.08161 -22.96265,35.35939 l 22.55841,106.12902 c 6.83087,32.13668 -13.93303,64.1103 -46.06973,70.94117 -32.13669,6.83086 -64.11031,-13.93304 -70.94117,-46.06974 l -14.28094,-67.18651 -12.67243,22.5973 -26.15814,-14.69504 32.16152,-57.31421 8.1783,-14.5815 13.60113,9.72851 53.05532,37.82704 -17.4313,24.40753 -21.64986,-15.42967 14.54082,68.4092 c 3.45995,16.27778 19.08161,26.42261 35.3594,22.96266 16.27779,-3.45995 26.42261,-19.08161 22.96266,-35.35939 L 223.34038,749.08453 c -6.83087,-32.13668 13.93304,-64.1103 46.06973,-70.94117 z" style="fill:none;stroke:#fff;stroke-width:3;stroke-miterlimit:4;stroke-opacity:1;stroke-dasharray:none"/></g></svg>