<svg xmlns="http://www.w3.org/2000/svg" xmlns:svg="http://www.w3.org/2000/svg" xmlns:xlink="http://www.w3.org/1999/xlink" id="svg2" width="500" height="500" version="1.1"><defs id="defs4"><linearGradient id="linearGradient3860"><stop style="stop-color:#10ff01;stop-opacity:1" id="stop3862" offset="0"/><stop style="stop-color:#0aa100;stop-opacity:1" id="stop3864" offset="1"/></linearGradient><linearGradient id="linearGradient3818"><stop style="stop-color:#3b6c0c;stop-opacity:1" id="stop3820" offset="0"/><stop style="stop-color:#99e03d;stop-opacity:1" id="stop3822" offset="1"/></linearGradient><marker id="Arrow1Mstart" orient="auto" refX="0" refY="0" style="overflow:visible"><path id="path5409" d="M 0.0,0.0 L 5.0,-5.0 L -12.5,0.0 L 5.0,5.0 L 0.0,0.0 z" transform="scale(0.4) translate(10,0)" style="fill-rule:evenodd;stroke:#000;stroke-width:1pt"/></marker><linearGradient id="linearGradient5261"><stop style="stop-color:#1fff1f;stop-opacity:1" id="stop5263" offset="0"/><stop style="stop-color:#5bf033;stop-opacity:1" id="stop5265" offset="1"/></linearGradient><linearGradient id="linearGradient3801"><stop id="stop3803" offset="0" style="stop-color:#fff;stop-opacity:1"/><stop id="stop3805" offset="1" style="stop-color:#ddd;stop-opacity:1"/></linearGradient><linearGradient id="linearGradient3783"><stop style="stop-color:#000;stop-opacity:1" id="stop3785" offset="0"/><stop style="stop-color:#1d1d1d;stop-opacity:1" id="stop3787" offset="1"/></linearGradient><filter id="filter5337" width="1.389" height="1.383" x="-.195" y="-.192"><feGaussianBlur id="feGaussianBlur5339" stdDeviation="28.783"/></filter><linearGradient id="linearGradient3012" x1="327.686" x2="165.422" y1="466.038" y2="27.303" gradientTransform="translate(-2.828125,552.36218)" gradientUnits="userSpaceOnUse" xlink:href="#linearGradient3783"/><linearGradient id="linearGradient3018" x1="162.261" x2="430.188" y1="115.094" y2="430.188" gradientTransform="translate(-2.828125,552.36218)" gradientUnits="userSpaceOnUse" xlink:href="#linearGradient5261"/><linearGradient id="linearGradient3037" x1="161.321" x2="221.537" y1="154.717" y2="298.836" gradientTransform="matrix(0.95156517,0,0,0.94630855,9.864446,14.6792)" gradientUnits="userSpaceOnUse" xlink:href="#linearGradient3801"/><linearGradient id="linearGradient3824" x1="260.88" x2="249.475" y1="128.278" y2="354.264" gradientTransform="translate(0,552.36218)" gradientUnits="userSpaceOnUse" xlink:href="#linearGradient3818"/><linearGradient id="linearGradient3866" x1="265" x2="264.406" y1="853.206" y2="693.275" gradientUnits="userSpaceOnUse" xlink:href="#linearGradient3860"/><filter id="filter3876"><feGaussianBlur id="feGaussianBlur3878" stdDeviation="1.292"/></filter><filter id="filter3880"><feGaussianBlur id="feGaussianBlur3882" stdDeviation="1.292"/></filter></defs><metadata id="metadata7"/><g id="layer1" transform="translate(0,-552.36218)"><rect style="fill:url(#linearGradient3018);fill-opacity:1;stroke:none;filter:url(#filter5337)" id="rect5259" width="354.719" height="360.375" x="72.641" y="622.175" transform="matrix(1.0649656,0,0,1.042819,-16.24141,-34.356373)"/><rect style="opacity:.91588780999999997;fill:#fff;fill-opacity:1;fill-rule:nonzero;stroke:none" id="rect3814" width="315.094" height="316.031" x="92.453" y="90.563" transform="translate(0,552.36218)"/><rect style="opacity:.91588781;fill:url(#linearGradient3824);fill-opacity:1;fill-rule:nonzero;stroke:none" id="rect3816" width="303.125" height="304.031" x="98.438" y="648.925"/><path style="fill:none;stroke:#000;stroke-width:0;stroke-miterlimit:4;stroke-opacity:1;stroke-dasharray:none;opacity:1" id="path3870" d="m 294.8125,684.89343 c 32.85464,0 59.8125,26.95785 59.8125,59.8125 l 0,68.6875 17.09375,-19.46875 22.53125,19.8125 -43.375,49.375 -11.03125,12.53125 -11.28125,-12.3125 -44.03125,-48.03125 22.125,-20.28125 17.96875,19.59375 0,-69.90625 c 0,-16.64147 -13.17106,-29.8125 -29.8125,-29.8125 -16.64143,0 -29.8125,13.17106 -29.8125,29.8125 l 0,108.5 c 0,32.85464 -26.95785,59.8125 -59.8125,59.8125 -32.85464,0 -59.8125,-26.95785 -59.8125,-59.8125 l 0,-68.6875 -17.09375,19.46875 -22.53125,-19.8125 43.375,-49.375 11.03125,-12.5625 11.28125,12.34375 44.03125,48.03125 -22.125,20.25 -17.96875,-19.59375 0,69.9375 c 0,16.64143 13.17106,29.8125 29.8125,29.8125 16.64145,0 29.8125,-13.17106 29.8125,-29.8125 l 0,-108.5 c 0,-32.85464 26.95785,-59.8125 59.8125,-59.8125 z"/><path style="opacity:.5;fill:none;stroke:url(#linearGradient3866);stroke-width:5;stroke-miterlimit:4;stroke-opacity:1;stroke-dasharray:none;filter:url(#filter3880)" id="path3830" d="m 294.8125,680.89343 c 32.85464,0 59.8125,26.95785 59.8125,59.8125 l 0,68.6875 17.09375,-19.46875 22.53125,19.8125 -43.375,49.375 -11.03125,12.53125 -11.28125,-12.3125 -44.03125,-48.03125 22.125,-20.28125 17.96875,19.59375 0,-69.90625 c 0,-16.64147 -13.17106,-29.8125 -29.8125,-29.8125 -16.64143,0 -29.8125,13.17106 -29.8125,29.8125 l 0,108.5 c 0,32.85464 -26.95785,59.8125 -59.8125,59.8125 -32.85464,0 -59.8125,-26.95785 -59.8125,-59.8125 l 0,-68.6875 -17.09375,19.46875 -22.53125,-19.8125 43.375,-49.375 11.03125,-12.5625 11.28125,12.34375 44.03125,48.03125 -22.125,20.25 -17.96875,-19.59375 0,69.9375 c 0,16.64143 13.17106,29.8125 29.8125,29.8125 16.64145,0 29.8125,-13.17106 29.8125,-29.8125 l 0,-108.5 c 0,-32.85464 26.95785,-59.8125 59.8125,-59.8125 z"/><path id="path3868" d="m 294.8125,688.89343 c 32.85464,0 59.8125,26.95785 59.8125,59.8125 l 0,68.6875 17.09375,-19.46875 22.53125,19.8125 -43.375,49.375 -11.03125,12.53125 -11.28125,-12.3125 -44.03125,-48.03125 22.125,-20.28125 17.96875,19.59375 0,-69.90625 c 0,-16.64147 -13.17106,-29.8125 -29.8125,-29.8125 -16.64143,0 -29.8125,13.17106 -29.8125,29.8125 l 0,108.5 c 0,32.85464 -26.95785,59.8125 -59.8125,59.8125 -32.85464,0 -59.8125,-26.95785 -59.8125,-59.8125 l 0,-68.6875 -17.09375,19.46875 -22.53125,-19.8125 43.375,-49.375 11.03125,-12.5625 11.28125,12.34375 44.03125,48.03125 -22.125,20.25 -17.96875,-19.59375 0,69.9375 c 0,16.64143 13.17106,29.8125 29.8125,29.8125 16.64145,0 29.8125,-13.17106 29.8125,-29.8125 l 0,-108.5 c 0,-32.85464 26.95785,-59.8125 59.8125,-59.8125 z" style="opacity:.90000000000000002;fill:none;stroke:#041b00;stroke-width:5;stroke-miterlimit:4;stroke-opacity:1;stroke-dasharray:none;filter:url(#filter3876)"/><path style="fill:url(#linearGradient3037);fill-opacity:1;fill-rule:nonzero;stroke:none" id="rect3791" d="m 98.4375,96.5625 0,304.03125 303.125,0 0,-304.03125 z m 196.375,35.96875 c 32.85464,0 59.8125,26.95785 59.8125,59.8125 l 0,68.6875 17.09375,-19.46875 22.53125,19.8125 -43.375,49.375 -11.03125,12.53125 -11.28125,-12.3125 -44.03125,-48.03125 22.125,-20.28125 17.96875,19.59375 0,-69.90625 c 0,-16.64147 -13.17106,-29.8125 -29.8125,-29.8125 -16.64143,0 -29.8125,13.17106 -29.8125,29.8125 l 0,108.5 c 0,32.85464 -26.95785,59.8125 -59.8125,59.8125 -32.85464,0 -59.8125,-26.95785 -59.8125,-59.8125 l 0,-68.6875 -17.09375,19.46875 -22.53125,-19.8125 43.375,-49.375 11.03125,-12.5625 11.28125,12.34375 44.03125,48.03125 -22.125,20.25 -17.96875,-19.59375 0,69.9375 c 0,16.64143 13.17106,29.8125 29.8125,29.8125 16.64145,0 29.8125,-13.17106 29.8125,-29.8125 l 0,-108.5 c 0,-32.85464 26.95785,-59.8125 59.8125,-59.8125 z" transform="translate(0,552.36218)"/><path style="opacity:.91588781;fill:url(#linearGradient3012);fill-opacity:1;fill-rule:nonzero;stroke:#000;stroke-width:5;stroke-linecap:round;stroke-linejoin:miter;stroke-miterlimit:4;stroke-opacity:1;stroke-dasharray:none;stroke-dashoffset:0" id="rect3010" d="m 72.640625,622.17468 0,360.375 354.718745,0 0,-360.375 -354.718745,0 z m 19.8125,20.75 315.093745,0 0,316.03125 -315.093745,0 0,-316.03125 z"/><path id="path3828" d="m 294.8125,132.53125 c 32.85464,0 59.8125,26.95785 59.8125,59.8125 l 0,68.6875 17.09375,-19.46875 22.53125,19.8125 -43.375,49.375 -11.03125,12.53125 -11.28125,-12.3125 -44.03125,-48.03125 22.125,-20.28125 17.96875,19.59375 0,-69.90625 c 0,-16.64147 -13.17106,-29.8125 -29.8125,-29.8125 -16.64143,0 -29.8125,13.17106 -29.8125,29.8125 l 0,108.5 c 0,32.85464 -26.95785,59.8125 -59.8125,59.8125 -32.85464,0 -59.8125,-26.95785 -59.8125,-59.8125 l 0,-68.6875 -17.09375,19.46875 -22.53125,-19.8125 43.375,-49.375 11.03125,-12.5625 11.28125,12.34375 44.03125,48.03125 -22.125,20.25 -17.96875,-19.59375 0,69.9375 c 0,16.64143 13.17106,29.8125 29.8125,29.8125 16.64145,0 29.8125,-13.17106 29.8125,-29.8125 l 0,-108.5 c 0,-32.85464 26.95785,-59.8125 59.8125,-59.8125 z" transform="translate(0,552.36218)" style="fill:none;fill-opacity:1;fill-rule:nonzero;stroke:#fff;stroke-opacity:1;stroke-width:3;stroke-miterlimit:4;stroke-dasharray:none"/></g></svg>